<svg xmlns="http://www.w3.org/2000/svg" width="800" height="800" viewBox="0 0 800 800">
  <g id="Group_3" data-name="Group 3" transform="translate(-1110 -461)">
    <g id="Group_2" data-name="Group 2" transform="translate(1110 461)">
      <rect id="Rectangle_3" data-name="Rectangle 3" width="800" height="800" rx="400" fill="#fff"/>
      <g id="Group_1" data-name="Group 1" transform="translate(2 16.097)">
        <path id="Subtraction_1" data-name="Subtraction 1" d="M283.9,540H205.039V362H342a56,56,0,1,0,0-112H205.039V189.9H328.574a261.044,261.044,0,0,1,31.014,1.743,178.929,178.929,0,0,1,26.878,5.23,126.063,126.063,0,0,1,22.743,8.717,96.277,96.277,0,0,1,18.608,12.2,85.055,85.055,0,0,1,14.473,15.69,90.377,90.377,0,0,1,10.338,19.176,113.24,113.24,0,0,1,6.2,22.663,157.359,157.359,0,0,1,2.068,26.15,129.067,129.067,0,0,1-2.373,25.108,107.015,107.015,0,0,1-7.118,22.591,102.119,102.119,0,0,1-11.864,20.073A113.633,113.633,0,0,1,422.934,386.8a122.22,122.22,0,0,1-20.576,14.259,134.6,134.6,0,0,1-23.766,10.185,164.273,164.273,0,0,1-26.955,6.111,214.431,214.431,0,0,1-30.143,2.037H283.9V540Z" transform="translate(194.961 19)" fill="#20232a"/>
        <path id="Subtraction_2" data-name="Subtraction 2" d="M283.9,540H205.039V362H342a56,56,0,1,0,0-112H205.039V189.9H328.574a261.044,261.044,0,0,1,31.014,1.743,178.929,178.929,0,0,1,26.878,5.23,126.063,126.063,0,0,1,22.743,8.717,96.277,96.277,0,0,1,18.608,12.2,85.055,85.055,0,0,1,14.473,15.69,90.377,90.377,0,0,1,10.338,19.176,113.24,113.24,0,0,1,6.2,22.663,157.359,157.359,0,0,1,2.068,26.15,129.067,129.067,0,0,1-2.373,25.108,107.015,107.015,0,0,1-7.118,22.591,102.119,102.119,0,0,1-11.864,20.073A113.633,113.633,0,0,1,422.934,386.8a122.22,122.22,0,0,1-20.576,14.259,134.6,134.6,0,0,1-23.766,10.185,164.273,164.273,0,0,1-26.955,6.111,214.431,214.431,0,0,1-30.143,2.037H283.9V540Z" transform="translate(-65.039 19)" fill="#61dafb"/>
      </g>
    </g>
  </g>
</svg>
